<?xml version="1.0" encoding="utf-8"?>
<!-- Uploaded to: SVG Repo, www.svgrepo.com, Generator: SVG Repo Mixer Tools -->
<svg width="800px" height="800px" viewBox="0 0 1024 1024" class="icon"  version="1.1" xmlns="http://www.w3.org/2000/svg"><path d="M512.1 1018.4c-13.8 0-25-11.2-25-25V33c0-13.8 11.2-25 25-25s25 11.2 25 25v960.4c0 13.8-11.2 25-25 25z" fill="#0F53A8" /><path d="M851.7 877.8c-6.4 0-12.8-2.4-17.7-7.3L154.9 191.3c-9.8-9.8-9.8-25.6 0-35.4 9.8-9.8 25.6-9.8 35.4 0L869.4 835c9.8 9.8 9.8 25.6 0 35.4-4.9 4.9-11.3 7.4-17.7 7.4z" fill="#0F53A8" /><path d="M992.3 538.2H31.9c-13.8 0-25-11.2-25-25s11.2-25 25-25h960.4c13.8 0 25 11.2 25 25s-11.2 25-25 25z" fill="#0F53A8" /><path d="M172.5 877.8c-6.4 0-12.8-2.4-17.7-7.3-9.8-9.8-9.8-25.6 0-35.4L834 156c9.8-9.8 25.6-9.8 35.4 0 9.8 9.8 9.8 25.6 0 35.4L190.2 870.5c-4.9 4.8-11.3 7.3-17.7 7.3z" fill="#0F53A8" /><path d="M512.1 141.3c-205.4 0-371.9 166.5-371.9 371.9s166.5 371.9 371.9 371.9S884 718.6 884 513.2 717.5 141.3 512.1 141.3z m0 645.6c-151.1 0-273.7-122.5-273.7-273.7S361 239.6 512.1 239.6s273.7 122.5 273.7 273.7-122.6 273.6-273.7 273.6z" fill="#B6CDEF" /><path d="M512.1 900.1c-52.2 0-102.9-10.2-150.6-30.4-46.1-19.5-87.4-47.4-123-82.9-35.5-35.5-63.4-76.9-82.9-123-20.2-47.7-30.4-98.4-30.4-150.6 0-52.2 10.2-102.9 30.4-150.6 19.5-46.1 47.4-87.4 82.9-123 35.5-35.5 76.9-63.4 123-82.9 47.7-20.2 98.4-30.4 150.6-30.4 52.2 0 102.9 10.2 150.6 30.4 46.1 19.5 87.4 47.4 123 82.9 35.5 35.5 63.4 76.9 82.9 123C888.8 410.3 899 461 899 513.2c0 52.2-10.2 102.9-30.4 150.6-19.5 46.1-47.4 87.4-82.9 123-35.5 35.5-76.9 63.4-123 82.9-47.7 20.2-98.4 30.4-150.6 30.4z m0-743.8c-95.3 0-185 37.1-252.4 104.5s-104.5 157-104.5 252.4c0 95.3 37.1 185 104.5 252.4s157 104.5 252.4 104.5c95.3 0 185-37.1 252.4-104.5S869 608.6 869 513.2c0-95.3-37.1-185-104.5-252.4S607.4 156.3 512.1 156.3z m0 645.6c-77.1 0-149.6-30-204.1-84.5s-84.5-127-84.5-204.1 30-149.6 84.5-204.1 127-84.5 204.1-84.5 149.6 30 204.1 84.5 84.5 127 84.5 204.1-30 149.6-84.5 204.1-127 84.5-204.1 84.5z m0-547.3c-69.1 0-134 26.9-182.9 75.8-48.9 48.9-75.8 113.8-75.8 182.9 0 69.1 26.9 134 75.8 182.9C378.1 745.1 443 772 512.1 772s134-26.9 182.9-75.8c48.9-48.9 75.8-113.8 75.8-182.9 0-69.1-26.9-134-75.8-182.9s-113.8-75.8-182.9-75.8z" fill="#0F53A8" /><path d="M512.1 513.2m-78.3 0a78.3 78.3 0 1 0 156.6 0 78.3 78.3 0 1 0-156.6 0Z" fill="#89B7F5" /><path d="M512.1 606.5c-51.4 0-93.3-41.9-93.3-93.3s41.9-93.3 93.3-93.3 93.3 41.9 93.3 93.3-41.9 93.3-93.3 93.3z m0-156.6c-34.9 0-63.3 28.4-63.3 63.3s28.4 63.3 63.3 63.3 63.3-28.4 63.3-63.3-28.4-63.3-63.3-63.3z" fill="#0F53A8" /></svg>